<?xml version="1.0" standalone="no"?>
<!DOCTYPE svg PUBLIC "-//W3C//DTD SVG 20010904//EN"
 "http://www.w3.org/TR/2001/REC-SVG-20010904/DTD/svg10.dtd">
<svg version="1.0" xmlns="http://www.w3.org/2000/svg"
 width="200.000000pt" height="200.000000pt" viewBox="0 0 200.000000 200.000000"
 preserveAspectRatio="xMidYMid meet">
<metadata>
Created by potrace 1.16, written by Peter Selinger 2001-2019
</metadata>
<g transform="translate(0.000000,200.000000) scale(0.100000,-0.100000)"
fill="#000000" stroke="none">
<path d="M957 1961 c-39 -44 -53 -91 -43 -151 6 -38 4 -42 -58 -105 -54 -54
-70 -65 -98 -65 -63 0 -138 -70 -138 -128 0 -18 4 -22 19 -17 13 4 23 -2 35
-20 9 -13 16 -28 15 -31 -1 -11 25 -24 49 -24 l24 0 -26 -31 c-15 -17 -33 -44
-42 -60 -13 -26 -20 -29 -63 -29 -52 0 -66 -10 -95 -68 -19 -37 -58 -183 -52
-190 3 -2 29 21 58 53 47 50 56 56 81 50 25 -7 27 -11 27 -54 1 -63 32 -127
91 -185 54 -53 53 -47 33 -147 -4 -22 1 -28 46 -48 54 -24 59 -34 34 -69 -11
-17 -25 -22 -57 -22 -36 0 -127 -31 -127 -43 0 -2 26 -2 57 1 l58 5 -33 -37
c-46 -53 -40 -60 20 -20 28 19 58 34 67 32 9 -2 31 -32 48 -68 l33 -65 0 45
c0 26 -9 62 -20 85 -20 40 -20 57 4 88 17 22 46 12 46 -17 0 -33 18 -90 35
-111 14 -19 15 -16 9 28 l-6 48 37 -25 c49 -34 65 -33 34 2 -13 15 -30 37 -37
50 -11 21 -10 22 20 24 18 1 48 1 66 -1 17 -1 32 2 32 8 0 15 -59 31 -119 31
-70 0 -87 10 -72 39 10 17 17 20 39 14 15 -5 70 -8 122 -8 82 0 103 4 153 27
226 106 337 343 262 558 -20 59 -76 139 -119 170 -30 22 -34 32 -40 82 -11
110 -59 180 -151 224 l-50 24 46 0 c33 0 57 -7 84 -25 20 -15 39 -24 41 -22
10 10 -49 76 -77 86 -40 14 -99 14 -136 1 -27 -10 -27 -9 7 19 37 31 89 51
136 51 28 1 28 1 9 16 -15 12 -36 15 -83 11 -76 -6 -125 -39 -157 -105 -21
-43 -42 -59 -58 -43 -16 16 -11 112 7 155 9 22 15 41 13 43 -3 2 -20 -14 -40
-36z m-5 -76 c-7 -85 23 -135 64 -107 6 4 14 19 17 34 17 66 105 128 182 127
22 -1 31 -3 20 -6 -82 -18 -142 -58 -171 -116 -16 -30 -9 -31 26 -2 45 37 133
42 176 11 17 -13 14 -13 -22 -3 -35 9 -50 7 -88 -7 -53 -20 -52 -31 2 -40 71
-11 127 -75 158 -181 27 -96 3 -198 -68 -290 l-31 -40 37 35 c44 40 82 97 92
134 9 37 25 32 72 -18 53 -58 71 -93 80 -163 15 -116 -14 -219 -85 -302 -40
-47 -81 -67 -155 -77 l-51 -7 40 54 c45 60 67 98 60 105 -2 2 -24 -5 -48 -16
-49 -22 -113 -26 -156 -9 -27 10 -27 11 -8 24 73 49 113 82 135 109 15 19 3
12 -30 -20 -30 -27 -76 -60 -103 -73 -26 -13 -45 -27 -42 -32 17 -27 137 -36
198 -15 20 8 37 10 37 6 0 -13 -77 -107 -102 -124 -21 -15 -19 -16 47 -16 53
0 83 6 121 24 28 13 55 29 58 35 4 6 12 11 17 11 19 0 -54 -80 -105 -115 -112
-77 -261 -99 -378 -55 -121 45 -217 172 -226 302 -3 50 -1 68 8 68 12 0 179
97 215 125 19 15 19 16 -4 61 -27 50 -61 81 -100 91 -14 3 -34 12 -43 20 -11
10 -30 14 -52 11 -19 -2 -34 -2 -32 0 2 2 -7 14 -20 27 -13 13 -24 29 -24 34
0 13 85 25 102 15 16 -10 78 -12 78 -2 0 13 -126 20 -169 8 -24 -6 -45 -10
-47 -8 -8 9 39 70 68 89 25 15 46 19 89 17 41 -2 62 1 75 13 50 44 117 53 173
25 49 -26 99 -119 54 -101 -38 15 -120 23 -158 15 l-40 -8 38 -1 c25 -1 37 -6
37 -15 0 -19 14 -28 34 -20 15 6 15 8 -1 21 -17 13 -15 14 12 9 51 -8 85 -25
85 -42 0 -23 -37 -72 -61 -79 -11 -4 -18 -9 -15 -12 9 -9 63 30 80 58 10 16
21 29 27 29 14 0 11 58 -6 90 -21 41 -78 81 -123 87 -38 5 -98 -15 -144 -49
-9 -7 -20 -9 -24 -5 -11 11 25 56 70 89 l43 30 -13 46 c-11 35 -11 54 -3 86
20 74 27 75 21 1z"/>
<path d="M484 441 c-45 -28 -64 -59 -64 -106 0 -90 77 -144 163 -114 48 17 53
26 28 58 -16 20 -20 22 -39 10 -15 -10 -29 -11 -49 -3 -23 8 -29 16 -31 47 -3
31 1 39 22 49 20 9 32 8 53 -1 23 -10 29 -9 47 8 l20 21 -20 21 c-30 30 -91
35 -130 10z"/>
<path d="M810 330 l0 -110 35 0 35 0 0 50 c0 52 12 64 30 30 15 -28 27 -25 50
13 l20 32 0 -62 0 -63 35 0 35 0 0 110 0 110 -37 0 c-31 0 -42 -6 -58 -30 -11
-16 -23 -30 -27 -30 -4 0 -15 14 -25 30 -14 25 -24 30 -55 30 l-38 0 0 -110z"/>
<path d="M1130 410 c0 -23 4 -30 20 -30 18 0 20 -7 20 -75 l0 -75 50 0 50 0 0
75 c0 68 2 75 20 75 16 0 20 7 20 30 l0 30 -90 0 -90 0 0 -30z"/>
<path d="M698 413 c-28 -4 -35 -24 -54 -143 -6 -40 -6 -40 25 -40 24 0 31 4
31 20 0 11 6 20 14 20 8 0 18 -9 21 -20 5 -14 15 -20 37 -20 29 0 30 2 24 30
-3 17 -11 59 -18 95 -12 70 -11 68 -80 58z"/>
<path d="M1320 315 l0 -85 63 0 c40 0 70 5 85 16 20 14 22 14 22 0 0 -12 10
-16 40 -16 l40 0 0 85 0 85 -40 0 -40 0 0 -42 c0 -33 -3 -39 -12 -30 -7 7 -27
12 -45 12 -30 0 -33 3 -33 30 0 28 -2 30 -40 30 l-40 0 0 -85z"/>
<path d="M1280 143 c-1 -35 -6 -66 -15 -77 -25 -33 -18 -46 24 -46 48 0 71 26
71 82 0 27 4 38 15 38 12 0 15 -13 15 -60 l0 -60 40 0 40 0 0 90 0 90 -95 0
-95 0 0 -57z"/>
<path d="M613 140 c3 -27 2 -52 -4 -55 -5 -4 -9 -24 -9 -46 0 -35 3 -39 25
-39 16 0 25 6 25 15 0 11 12 15 50 15 38 0 50 -4 50 -15 0 -10 10 -15 31 -15
l32 0 -7 61 c-3 34 -6 77 -6 95 l0 34 -96 0 -97 0 6 -50z"/>
<path d="M970 165 c0 -16 6 -25 15 -25 12 0 15 -13 15 -55 l0 -55 40 0 40 0 0
55 c0 42 3 55 15 55 9 0 15 9 15 25 0 24 -2 25 -70 25 -68 0 -70 -1 -70 -25z"/>
<path d="M838 159 c-20 -11 -24 -39 -7 -56 8 -8 8 -17 0 -31 -6 -11 -11 -23
-11 -26 0 -2 32 -5 70 -5 l70 0 0 64 0 65 -52 0 c-29 0 -61 -5 -70 -11z"/>
</g>
</svg>
